<?xml version="1.0" encoding="UTF-8"?><svg id="a" xmlns="http://www.w3.org/2000/svg" viewBox="0 0 915.67 334.66"><defs><style>.b,.c,.d{fill:#fff;}.c,.d{stroke:#fff;}.d{opacity:.77;stroke-miterlimit:10;}</style></defs><g><path class="c" d="M17.37,236.93v30.17H.5v-100.62H17.37v4.86c4.23-4.14,9.43-6.21,15.59-6.21,23.03,0,34.55,12.69,34.55,38.06,0,11.83-3.18,20.94-9.55,27.33-6.37,6.39-15.06,9.58-26.08,9.58-5.31,0-10.15-1.06-14.51-3.17Zm0-52.77v37.99c3.06,2.48,6.64,3.71,10.73,3.71,7.78,0,13.37-1.86,16.77-5.57,3.4-3.71,5.1-9.57,5.1-17.58,0-8.55-1.69-14.57-5.06-18.05s-8.96-5.23-16.74-5.23c-4.05,0-7.65,1.58-10.8,4.73Z"/><path class="c" d="M82.35,139.55l16.87-4.05v81.25c0,8.91,2.66,14.22,7.96,15.93-2.61,4.95-7.06,7.42-13.36,7.42-7.65,0-11.47-5.31-11.47-15.93v-84.63Z"/><path class="c" d="M158.58,231.54c-1.53,2.52-4.19,4.58-8,6.17-3.8,1.6-7.77,2.4-11.91,2.4-7.78,0-13.9-1.94-18.36-5.84-4.45-3.89-6.68-9.42-6.68-16.57,0-8.37,3.14-14.91,9.42-19.64,6.28-4.72,15.19-7.08,26.76-7.08,1.98,0,4.32,.34,7.02,1.01,0-8.51-5.38-12.76-16.13-12.76-6.34,0-11.66,1.06-15.93,3.17l-3.64-13.09c5.81-2.79,12.71-4.18,20.72-4.18,11.02,0,19.1,2.51,24.23,7.53,5.13,5.02,7.69,14.52,7.69,28.51v15.46c0,9.63,1.93,15.68,5.8,18.15-1.39,2.43-2.95,3.93-4.66,4.49-1.71,.56-3.67,.84-5.87,.84-2.43,0-4.61-.9-6.55-2.7-1.94-1.8-3.24-3.76-3.91-5.87Zm-1.62-26.79c-2.88-.58-5.04-.88-6.48-.88-13.32,0-19.98,4.36-19.98,13.09,0,6.48,3.76,9.72,11.27,9.72,10.12,0,15.19-5.06,15.19-15.18v-6.75Z"/><path class="c" d="M247.07,172.21l-7.22,12.62c-3.96-3.73-9.27-5.6-15.93-5.6s-11.44,2.13-15.15,6.38c-3.71,4.25-5.57,10.13-5.57,17.65,0,15.17,7.22,22.74,21.66,22.74,6.25,0,11.77-2.07,16.53-6.21l6.21,13.29c-4.91,3.06-9.19,5-12.86,5.81-3.67,.81-8,1.21-12.99,1.21-11.16,0-19.96-3.25-26.42-9.75-6.46-6.5-9.68-15.53-9.68-27.1s3.53-20.58,10.59-27.6c7.06-7.02,16.69-10.53,28.88-10.53,8.41,0,15.73,2.36,21.94,7.09Z"/><path class="c" d="M322.24,207.78h-51.63c.31,5.76,2.3,10.23,5.94,13.43s8.55,4.79,14.71,4.79c7.69,0,13.54-2,17.54-6.01l6.55,12.89c-5.94,4.81-14.8,7.22-26.59,7.22-11.03,0-19.74-3.23-26.15-9.68-6.41-6.46-9.62-15.46-9.62-27.03s3.52-20.6,10.56-27.67c7.04-7.06,15.49-10.6,25.34-10.6,10.48,0,18.9,3.13,25.24,9.38,6.34,6.25,9.52,14.22,9.52,23.89,0,2.07-.47,5.2-1.42,9.38Zm-51.02-12.69h35.5c-1.17-10.57-7.02-15.86-17.54-15.86-9.63,0-15.61,5.29-17.95,15.86Z"/><path class="c" d="M331.93,234.1l6.01-13.43c5.04,4,10.73,6.01,17.07,6.01s9.85-2.34,9.85-7.02c0-2.74-.99-4.99-2.97-6.75-1.98-1.75-5.83-3.82-11.54-6.21-12.46-5.17-18.69-12.42-18.69-21.73,0-6.25,2.38-11.12,7.15-14.61,4.77-3.49,10.86-5.23,18.29-5.23s14.58,1.69,21.19,5.06l-4.86,13.09c-3.69-3.15-8.82-4.72-15.39-4.72-5.89,0-8.84,2.34-8.84,7.02,0,1.85,.96,3.51,2.9,5,1.93,1.48,6.07,3.47,12.42,5.97s10.91,5.53,13.7,9.08c2.79,3.55,4.19,7.85,4.19,12.89,0,6.7-2.49,11.98-7.46,15.83-4.97,3.84-11.73,5.77-20.28,5.77-4.82,0-8.68-.39-11.58-1.18-2.9-.79-6.62-2.4-11.17-4.83Z"/><path class="c" d="M438.73,180.04h-8.37v-13.56h8.37v-14.71l16.87-6.21v20.92h19.84v13.56h-19.84v31.65c0,5.18,.81,8.83,2.43,10.97s4.45,3.21,8.5,3.21,7.83-1.1,11.34-3.31v15.52c-3.91,1.35-9.49,2.02-16.73,2.02s-12.73-2.03-16.6-6.11-5.8-9.86-5.8-17.38v-36.58Z"/><path class="c" d="M530.97,231.54c-1.53,2.52-4.19,4.58-8,6.17-3.8,1.6-7.77,2.4-11.91,2.4-7.78,0-13.9-1.94-18.36-5.84-4.45-3.89-6.68-9.42-6.68-16.57,0-8.37,3.14-14.91,9.42-19.64,6.28-4.72,15.19-7.08,26.76-7.08,1.98,0,4.32,.34,7.02,1.01,0-8.51-5.38-12.76-16.13-12.76-6.34,0-11.66,1.06-15.93,3.17l-3.64-13.09c5.81-2.79,12.71-4.18,20.72-4.18,11.02,0,19.1,2.51,24.23,7.53,5.13,5.02,7.69,14.52,7.69,28.51v15.46c0,9.63,1.93,15.68,5.8,18.15-1.39,2.43-2.95,3.93-4.66,4.49-1.71,.56-3.67,.84-5.87,.84-2.43,0-4.61-.9-6.55-2.7-1.94-1.8-3.24-3.76-3.91-5.87Zm-1.62-26.79c-2.88-.58-5.04-.88-6.48-.88-13.32,0-19.98,4.36-19.98,13.09,0,6.48,3.76,9.72,11.27,9.72,10.12,0,15.19-5.06,15.19-15.18v-6.75Z"/><path class="c" d="M564.26,139.55l16.87-4.05v81.25c0,8.91,2.66,14.22,7.96,15.93-2.61,4.95-7.06,7.42-13.36,7.42-7.65,0-11.47-5.31-11.47-15.93v-84.63Z"/><path class="c" d="M646.49,238.76l-21.26-32.73-8.1,8.57v24.16h-16.87v-99.21l16.87-4.05v58.71l24.09-27.74h20.31l-24.43,27.4,29.42,44.88h-20.04Z"/><path class="c" d="M672.21,234.1l6.01-13.43c5.04,4,10.73,6.01,17.07,6.01s9.85-2.34,9.85-7.02c0-2.74-.99-4.99-2.97-6.75-1.98-1.75-5.83-3.82-11.54-6.21-12.46-5.17-18.69-12.42-18.69-21.73,0-6.25,2.38-11.12,7.15-14.61,4.77-3.49,10.86-5.23,18.29-5.23s14.58,1.69,21.19,5.06l-4.86,13.09c-3.69-3.15-8.82-4.72-15.39-4.72-5.89,0-8.84,2.34-8.84,7.02,0,1.85,.96,3.51,2.9,5,1.93,1.48,6.07,3.47,12.42,5.97s10.91,5.53,13.7,9.08c2.79,3.55,4.19,7.85,4.19,12.89,0,6.7-2.49,11.98-7.46,15.83-4.97,3.84-11.73,5.77-20.28,5.77-4.82,0-8.68-.39-11.58-1.18-2.9-.79-6.62-2.4-11.17-4.83Z"/><path class="d" d="M158.02,288.32v-45.59h6.85v39.99h22.66v5.6h-29.51Z"/><path class="d" d="M210.92,284.5c-2.6,2.97-6.58,4.45-11.95,4.45-2.88,0-5.37-.95-7.48-2.85-2.11-1.89-3.17-4.26-3.17-7.08,0-3.38,1.63-6.24,4.88-8.57,3.25-2.34,7.4-3.5,12.44-3.5,1.37,0,2.92,.27,4.66,.81,0-5.39-2.65-8.09-7.94-8.09-4.06,0-7.19,1-9.38,2.99l-2.74-4.95c1.23-.91,2.94-1.69,5.12-2.35,2.18-.65,4.26-.98,6.25-.98,5.32,0,9.18,1.1,11.59,3.3,2.41,2.2,3.61,5.69,3.61,10.49v11.95c0,2.93,.96,4.88,2.87,5.85v2.96c-2.65,0-4.63-.34-5.94-1.03-1.31-.68-2.25-1.82-2.82-3.39Zm-.62-12.54c-2.05-.41-3.49-.62-4.32-.62-3.28,0-5.97,.77-8.04,2.3-2.08,1.54-3.12,3.35-3.12,5.45,0,3.46,2.25,5.2,6.74,5.2,3.29,0,6.2-1.42,8.73-4.26v-8.06Z"/><path class="d" d="M253.67,288.95h-1.71l-15.71-34.04h7.12l9.69,23.34,9.89-23.34h6.81l-16.09,34.04Z"/><path class="d" d="M267.56,271.58c0-5.14,1.52-9.3,4.57-12.46s7.06-4.75,12.03-4.75c5.25,0,9.32,1.52,12.22,4.56s4.35,7.25,4.35,12.65-1.49,9.61-4.45,12.71c-2.97,3.1-7.01,4.65-12.12,4.65s-9.3-1.57-12.22-4.7c-2.92-3.13-4.38-7.35-4.38-12.67Zm6.85,0c0,8.36,3.25,12.54,9.75,12.54,3.04,0,5.41-1.12,7.14-3.36s2.59-5.3,2.59-9.18c0-8.26-3.24-12.39-9.72-12.39-2.97,0-5.34,1.1-7.1,3.3-1.77,2.2-2.65,5.23-2.65,9.09Z"/><path class="d" d="M310.38,283.03h20.33v5.29h-30.53v-1.56l20.85-26.48h-20.5v-5.29h29.98v1.68l-20.13,26.36Z"/><path class="d" d="M373.35,288.29v-2.46c-2.26,2.05-5.55,3.08-9.86,3.08-4.58,0-8.31-1.49-11.16-4.48s-4.28-6.97-4.28-11.95,1.64-9.27,4.93-12.8c3.29-3.54,7.2-5.31,11.74-5.31,3.79,0,6.66,.81,8.63,2.43v-15.47h6.5v46.96h-6.5Zm0-25.58c-1.65-2.24-3.89-3.36-6.75-3.36-3.49,0-6.31,1.18-8.47,3.55s-3.23,5.37-3.23,9.02c0,8.03,4.01,12.04,12.05,12.04,1.03,0,2.26-.3,3.7-.89,1.43-.59,2.34-1.22,2.7-1.88v-18.48Z"/><path class="d" d="M416.18,272.24h-26.42c0,3.9,1.17,6.9,3.52,8.99,2.08,1.83,4.75,2.74,8.01,2.74,3.72,0,6.82-.99,9.31-2.96l2.74,4.26c-1.01,.91-2.54,1.7-4.62,2.37-2.6,.87-5.5,1.31-8.69,1.31-4.61,0-8.53-1.42-11.74-4.26-3.58-3.13-5.37-7.34-5.37-12.63s1.84-9.91,5.51-13.23c3.29-2.97,7.18-4.45,11.67-4.45,5.23,0,9.32,1.34,12.29,4.01,2.88,2.57,4.32,5.99,4.32,10.24,0,1.31-.17,2.51-.52,3.61Zm-15.78-12.88c-2.9,0-5.33,.85-7.29,2.55-1.87,1.62-2.93,3.63-3.18,6.04h20.3c0-2.39-.82-4.38-2.47-5.97-1.8-1.74-4.26-2.61-7.36-2.61Z"/><path class="d" d="M439.28,259.66h-4.25v-4.67h4.25v-6.97l6.5-2.27v9.24h10.06v4.67h-10.06v16.56c0,2.8,.52,4.79,1.56,5.97s2.71,1.77,5.02,1.77c1.66,0,3.39-.38,5.17-1.15l.96,5.2c-2.69,.62-5.65,.93-8.87,.93-2.9,0-5.35-.98-7.34-2.94-2-1.96-2.99-4.44-2.99-7.42v-18.92Z"/><path class="d" d="M466.11,255v21.25c0,5.14,2.45,7.72,7.36,7.72,2.14,0,4.11-.56,5.89-1.68s2.95-2.42,3.53-3.89v-23.4h6.5v33.33h-6.5v-4.61c-.73,1.31-2.2,2.5-4.4,3.6-2.2,1.09-4.35,1.63-6.45,1.63-4.02,0-7.09-1.05-9.22-3.14s-3.2-5.07-3.2-8.93v-21.88h6.5Z"/><path class="d" d="M542.54,272.24h-26.42c0,3.9,1.17,6.9,3.52,8.99,2.08,1.83,4.75,2.74,8.01,2.74,3.72,0,6.82-.99,9.31-2.96l2.74,4.26c-1.01,.91-2.54,1.7-4.62,2.37-2.6,.87-5.5,1.31-8.69,1.31-4.61,0-8.53-1.42-11.74-4.26-3.58-3.13-5.37-7.34-5.37-12.63s1.84-9.91,5.51-13.23c3.29-2.97,7.18-4.45,11.67-4.45,5.23,0,9.32,1.34,12.29,4.01,2.88,2.57,4.32,5.99,4.32,10.24,0,1.31-.17,2.51-.52,3.61Zm-15.78-12.88c-2.9,0-5.33,.85-7.29,2.55-1.87,1.62-2.93,3.63-3.18,6.04h20.3c0-2.39-.82-4.38-2.47-5.97-1.8-1.74-4.26-2.61-7.36-2.61Z"/><path class="d" d="M568.43,288.32v-19.39c0-3.55-.59-6.03-1.76-7.45s-3.15-2.13-5.91-2.13c-1.48,0-3.04,.4-4.65,1.21-1.62,.81-2.87,1.8-3.73,2.99v24.77h-6.5v-33.33h4.45l2.05,4.29c2.14-3.28,5.65-4.92,10.51-4.92,8.03,0,12.05,4.44,12.05,13.32v20.63h-6.5Z"/><path class="d" d="M581.35,259.66h-4.25v-4.67h4.25v-6.97l6.5-2.27v9.24h10.06v4.67h-10.06v16.56c0,2.8,.52,4.79,1.56,5.97s2.71,1.77,5.02,1.77c1.66,0,3.39-.38,5.17-1.15l.96,5.2c-2.69,.62-5.65,.93-8.87,.93-2.9,0-5.35-.98-7.34-2.94-2-1.96-2.99-4.44-2.99-7.42v-18.92Z"/><path class="d" d="M599.73,271.58c0-5.14,1.52-9.3,4.57-12.46s7.06-4.75,12.03-4.75c5.25,0,9.32,1.52,12.22,4.56s4.35,7.25,4.35,12.65-1.49,9.61-4.45,12.71c-2.97,3.1-7.01,4.65-12.12,4.65s-9.3-1.57-12.22-4.7c-2.92-3.13-4.38-7.35-4.38-12.67Zm6.85,0c0,8.36,3.25,12.54,9.75,12.54,3.04,0,5.41-1.12,7.14-3.36s2.59-5.3,2.59-9.18c0-8.26-3.24-12.39-9.72-12.39-2.97,0-5.34,1.1-7.1,3.3-1.77,2.2-2.65,5.23-2.65,9.09Z"/><path class="d" d="M655.69,260.69c-1.41-.89-2.84-1.34-4.28-1.34-2.31,0-4.32,.96-6.04,2.89-1.72,1.93-2.58,4.25-2.58,6.97v19.11h-6.5v-33.33h6.5v5.32c2.37-3.96,5.9-5.94,10.58-5.94,1.17,0,2.84,.19,5.03,.56l-2.7,5.76Z"/><path class="d" d="M682.23,288.32v-19.39c0-3.55-.59-6.03-1.76-7.45s-3.15-2.13-5.91-2.13c-1.48,0-3.04,.4-4.65,1.21-1.62,.81-2.87,1.8-3.73,2.99v24.77h-6.5v-33.33h4.45l2.05,4.29c2.14-3.28,5.65-4.92,10.51-4.92,8.03,0,12.05,4.44,12.05,13.32v20.63h-6.5Z"/><path class="d" d="M691.68,271.58c0-5.14,1.52-9.3,4.57-12.46s7.06-4.75,12.03-4.75c5.25,0,9.32,1.52,12.22,4.56s4.35,7.25,4.35,12.65-1.49,9.61-4.45,12.71c-2.97,3.1-7.01,4.65-12.12,4.65s-9.3-1.57-12.22-4.7c-2.92-3.13-4.38-7.35-4.38-12.67Zm6.85,0c0,8.36,3.25,12.54,9.75,12.54,3.04,0,5.41-1.12,7.14-3.36s2.59-5.3,2.59-9.18c0-8.26-3.24-12.39-9.72-12.39-2.97,0-5.34,1.1-7.1,3.3-1.77,2.2-2.65,5.23-2.65,9.09Z"/></g><path class="b" d="M771.52,130.17c13.07,8.6,23.75,20.5,31.78,33.93,6.33,10.66,10.44,22.81,11.93,35.17,4.06,35.87-16.65,69.19-43.71,90.83,18.75-23.2,35.78-50.07,36.16-80.42,.65-30.23-15.63-58.27-36.16-79.52h0Z"/><path class="b" d="M804.81,103.38c34.24,24.31,59.02,64.78,58.32,107.55-.57,42.92-26.62,81.59-58.32,108.46,26.35-30.84,49.67-67,50.32-108.58,.71-41.11-21.56-79.33-50.32-107.43h0Z"/><path class="b" d="M845.25,70.57c41.26,30.17,71.24,79.39,70.4,131.47-.71,52.3-32.26,99.29-70.4,132.61,41.75-46.93,74.53-105.01,58.19-169.36-9.15-36.43-31.15-69-58.19-94.72h0Z"/></svg>