<?xml version="1.0" encoding="UTF-8"?>
<svg id="Capa_1_copia" data-name="Capa 1 copia" xmlns="http://www.w3.org/2000/svg" viewBox="0 0 810.71 810.71">
  <defs>
    <style>
      .cls-1 {
        fill: #25356b;
        stroke: #1d1d1b;
        stroke-miterlimit: 10;
      }

      .cls-2 {
        fill: #d55665;
      }
    </style>
  </defs>
  <rect class="cls-1" x="-99.06" y="-77.75" width="987.82" height="950.68"/>
  <g>
    <path class="cls-2" d="m133.33,477.39v73.66h-41.19v-245.69h41.19v11.86c10.33-10.11,23.01-15.16,38.07-15.16,56.24,0,84.36,30.98,84.36,92.94,0,28.89-7.77,51.14-23.31,66.74-15.55,15.6-36.77,23.39-63.69,23.39-12.97,0-24.78-2.58-35.43-7.74Zm0-128.86v92.76c7.47,6.04,16.2,9.07,26.21,9.07,19,0,32.65-4.53,40.95-13.59,8.29-9.07,12.44-23.38,12.44-42.93,0-20.87-4.12-35.57-12.36-44.08-8.24-8.51-21.87-12.77-40.87-12.77-9.89,0-18.67,3.85-26.37,11.54Z"/>
    <path class="cls-2" d="m276.2,350.02h-20.44v-33.12h20.44v-35.92l41.19-15.16v51.08h48.45v33.12h-48.45v77.28c0,12.64,1.98,21.56,5.93,26.78s10.87,7.83,20.76,7.83,19.11-2.69,27.68-8.07v37.9c-9.56,3.29-23.17,4.94-40.86,4.94s-31.09-4.96-40.54-14.91c-9.45-9.95-14.17-24.09-14.17-42.43v-89.31Z"/>
  </g>
  <path class="cls-2" d="m395.19,209.93c49.28,27.9,90.28,80.36,105.86,134.92,21.86,74.67-2.37,150.38-52.71,207.66-12.55,14.46-26.6,27.64-41.62,39.49-3.82,2.87-7.62,5.72-11.53,8.44,7.95-11.71,16.09-23.21,23.79-35.02,9.9-15.36,19.55-31.23,27.72-47.59,14.58-28.57,25.44-59.27,29.41-91.15,10.43-80.48-29.77-156.88-80.92-216.75h0Z"/>
  <path class="cls-2" d="m476.47,144.52c22.02,13.35,41.48,30.45,59.36,48.95,54.6,56.74,90.62,134,88.97,213.76-1.08,80.04-38.66,154.55-91.81,212.72-12.97,14.2-26.94,27.55-41.55,40.02-4.97,4.04-9.92,8.08-14.97,11.98,7.61-10.21,15.3-20.3,22.83-30.51,41.92-57.66,78.5-121.33,90.26-192.32,6.18-37.69,4.86-76.31-3.98-113.58-17.28-72.24-58.92-136.84-109.11-191.01h0Z"/>
  <path class="cls-2" d="m575.22,64.42c26.41,16.9,49.79,38.1,71.25,60.93,29.68,31.94,54.8,68.31,73.27,107.85,40.51,86.23,44.09,181.5,10.33,270.55-25.3,66.72-68.53,125.61-119.68,174.65-11.37,10.7-23.04,21.03-35.17,30.82,9.59-12.22,19.22-24.35,28.63-36.65,55.47-73.45,103.21-156.42,115.03-248.89,7.88-60.69-1.18-122.98-23.92-179.79-26.95-67.2-69.25-127.74-119.74-179.47h0Z"/>
</svg>